#!OML:ASF F:\VICON\USERDATA\INSTALL\rory3\rory3.ASF
:FULLY-SPECIFIED
:DEGREES
1406
root 3.12349 18.0693 7.32514 -181.489 -11.2976 180.106
lowerback 23.5476 2.26892 -0.605868
upperback 6.01439 1.58537 -1.52145
thorax -6.47358 0.305588 -1.70531
lowerneck -9.93058 -1.932 -6.30079
upperneck -3.59688 -2.2852 7.2852
head 0.758937 -1.13492 3.40142
rclavicle -7.55382e-015 -3.97569e-015
rhumerus 31.7898 -13.9665 -68.6582
rradius 86.6845
rwrist -4.88312
rhand -29.1464 -6.78256
rfingers 7.12502
rthumb -2.49306 -36.7477
lclavicle -7.55382e-015 -3.97569e-015
lhumerus -14.2012 -15.9026 69.3519
lradius 58.3498
lwrist 23.3605
lhand -26.8374 28.2546
lfingers 7.12502
lthumb -0.263051 58.2342
rfemur -10.7675 10.2516 26.8581
rtibia 40.1297
rfoot -27.5819 -11.9172
rtoes 2.48495
lfemur -74.8404 0.576046 -20.0321
ltibia 92.9093
lfoot -16.3689 -4.31759
ltoes -5.76378
1407
root 3.1377 18.0671 7.3727 -181.651 -11.1469 180.31
lowerback 23.3906 2.2766 -0.252085
upperback 5.93148 1.711 -1.462
thorax -6.47014 0.373392 -1.87635
lowerneck -9.84798 -1.87486 -6.25928
upperneck -3.33706 -2.20154 7.00618
head 0.816773 -1.08689 3.30041
rclavicle 2.3059e-014 7.15625e-015
rhumerus 30.3637 -13.2738 -68.3312
rradius 87.0049
rwrist -4.55459
rhand -29.4695 -6.73745
rfingers 7.12502
rthumb -2.80509 -36.6988
lclavicle 2.3059e-014 7.15625e-015
lhumerus -15.2225 -15.5024 70.2246
lradius 56.9714
lwrist 23.234
lhand -27.5229 29.9107
lfingers 7.12502
lthumb -0.925092 59.8885
rfemur -10.9116 10.1275 27.0372
rtibia 40.2855
rfoot -27.5901 -11.5849
rtoes 2.6542
lfemur -74.7993 0.729616 -19.7562
ltibia 92.7287
lfoot -16.2491 -4.2413
ltoes -6.60155
1408
root 3.14974 18.0512 7.41414 -181.836 -10.9739 180.51
lowerback 23.2034 2.294 -0.0073177
upperback 5.84933 1.8308 -1.32736
thorax -6.45606 0.440074 -1.90048
lowerneck -9.77861 -1.76933 -6.25931
upperneck -2.99824 -2.04573 6.68165
head 0.897617 -1.00123 3.19549
rclavicle 2.70347e-014 -1.43125e-014
rhumerus 28.8647 -12.4483 -67.9146
rradius 87.3325
rwrist -4.35127
rhand -29.7269 -6.65009
rfingers 7.12502
rthumb -3.05373 -36.608
lclavicle 2.70347e-014 -1.43125e-014
lhumerus -16.2793 -14.9849 71.1795
lradius 55.5364
lwrist 23.1049
lhand -28.2207 31.4222
lfingers 7.12502
lthumb -1.5991 61.396
rfemur -10.9588 10.0682 27.2381
rtibia 40.3631
rfoot -27.5591 -11.3477
rtoes 2.65982
lfemur -74.8298 0.91248 -19.5047
ltibia 92.6547
lfoot -16.1469 -4.10701
ltoes -7.33783
1409
root 3.16199 18.0509 7.45335 -182.134 -10.8136 180.526
lowerback 23.0512 2.31367 0.102905
upperback 5.86393 1.89291 -1.26686
thorax -6.35807 0.471696 -1.91036
lowerneck -9.92334 -1.69106 -6.22603
upperneck -2.45264 -1.92243 6.376
head 1.08627 -0.928308 3.09093
rclavicle -1.12313e-014 -6.75868e-015
rhumerus 27.5276 -11.5931 -67.5996
rradius 87.6196
rwrist -4.11405
rhand -29.9745 -6.76384
rfingers 7.12502
rthumb -3.29287 -36.7182
lclavicle -1.12313e-014 -6.75868e-015
lhumerus -17.2615 -14.3996 71.9905
lradius 54.1587
lwrist 23.1165
lhand -28.3741 30.3337
lfingers 7.12502
lthumb -1.74721 60.3063
rfemur -10.7807 10.0223 27.274
rtibia 40.3553
rfoot -27.5303 -11.2176
rtoes 2.73152
lfemur -74.5451 1.09865 -19.4581
ltibia 92.5007
lfoot -16.1066 -4.06889
ltoes -7.31689
1410
root 3.17452 18.0564 7.49433 -182.424 -10.7067 180.333
lowerback 23.0256 2.33438 0.0654875
upperback 5.8202 1.91562 -1.30132
thorax -6.39226 0.485355 -1.93298
lowerneck -9.91427 -1.59838 -6.18123
upperneck -1.98811 -1.78796 6.16977
head 1.22304 -0.852444 3.01975
rclavicle 7.85199e-015 -1.39149e-014
rhumerus 26.0928 -10.704 -67.3561
rradius 87.8615
rwrist -3.88939
rhand -30.4446 -6.39188
rfingers 7.12502
rthumb -3.74684 -36.3387
lclavicle 7.85199e-015 -1.39149e-014
lhumerus -18.3577 -14.0435 72.6894
lradius 52.8735
lwrist 23.004
lhand -27.5683 29.6557
lfingers 7.12502
lthumb -0.968969 59.6333
rfemur -10.5419 9.95946 27.0959
rtibia 40.3335
rfoot -27.5174 -11.1108
rtoes 2.85002
lfemur -74.1298 1.26164 -19.6706
ltibia 92.2692
lfoot -16.0422 -4.06739
ltoes -6.96219
1411
root 3.18806 18.0653 7.53466 -182.694 -10.5957 180.026
lowerback 23.0556 2.40321 -0.0672603
upperback 5.7446 1.97667 -1.37683
thorax -6.49083 0.518554 -1.95888
lowerneck -9.84112 -1.49027 -6.08926
upperneck -1.54749 -1.64134 5.99678
head 1.34023 -0.771991 2.95204
rclavicle -3.08116e-014 2.78299e-014
rhumerus 24.5424 -9.86842 -67.0731
rradius 88.1154
rwrist -3.73698
rhand -30.6893 -6.01372
rfingers 7.12502
rthumb -3.98313 -35.9562
lclavicle -3.08116e-014 2.78299e-014
lhumerus -19.3547 -13.6752 73.3695
lradius 51.4076
lwrist 22.2222
lhand -25.7438 29.8186
lfingers 7.12502
lthumb 0.793165 59.7969
rfemur -10.2848 9.98075 26.8101
rtibia 40.2609
rfoot -27.5054 -10.9796
rtoes 2.95705
lfemur -73.6749 1.41595 -19.9945
ltibia 91.9705
lfoot -15.909 -4.09707
ltoes -6.46321
1412
root 3.20401 18.0747 7.5738 -182.948 -10.4129 179.847
lowerback 23.0123 2.48021 -0.223587
upperback 5.66086 2.0563 -1.36583
thorax -6.56471 0.563798 -1.88073
lowerneck -9.66992 -1.32774 -5.93826
upperneck -1.231 -1.43185 5.75408
head 1.39341 -0.665113 2.85139
rclavicle -3.27001e-014 4.17448e-014
rhumerus 23.0672 -8.8943 -66.7599
rradius 88.2954
rwrist -3.62933
rhand -30.5771 -5.93918
rfingers 7.12502
rthumb -3.87478 -35.8837
lclavicle -3.27001e-014 4.17448e-014
lhumerus -20.3958 -13.2445 74.0454
lradius 49.8724
lwrist 21.3774
lhand -24.9295 28.8371
lfingers 7.12502
lthumb 1.57966 58.811
rfemur -10.0674 10.1366 26.6869
rtibia 40.1836
rfoot -27.412 -11.0299
rtoes 2.85267
lfemur -73.3116 1.67755 -20.1611
ltibia 91.6772
lfoot -15.6757 -4.15565
ltoes -6.04302
1413
root 3.22441 18.0831 7.61864 -183.214 -10.3359 179.716
lowerback 23.1106 2.51665 -0.38838
upperback 5.53695 2.08516 -1.31179
thorax -6.75917 0.585111 -1.74252
lowerneck -9.64802 -1.19573 -5.9065
upperneck -0.730518 -1.24585 5.59224
head 1.53904 -0.565366 2.80248
rclavicle 4.41302e-014 -1.43125e-014
rhumerus 21.5872 -7.8773 -66.4485
rradius 88.4609
rwrist -3.63877
rhand -30.6617 -5.90803
rfingers 7.12502
rthumb -3.95642 -35.851
lclavicle 4.41302e-014 -1.43125e-014
lhumerus -21.4223 -12.7979 74.6973
lradius 48.2918
lwrist 20.7452
lhand -24.8217 27.9414
lfingers 7.12502
lthumb 1.68376 57.9145
rfemur -9.85876 10.2214 26.6296
rtibia 40.0486
rfoot -27.2529 -11.1037
rtoes 2.82833
lfemur -73.0073 1.90268 -20.2999
ltibia 91.3805
lfoot -15.3252 -4.22755
ltoes -5.98234
1414
root 3.23778 18.092 7.65631 -183.528 -10.2276 179.492
lowerback 23.1953 2.56778 -0.612227
upperback 5.50466 2.10319 -1.25556
thorax -6.84941 0.596241 -1.56222
lowerneck -9.91396 -1.13594 -6.13284
upperneck -0.0807516 -1.1235 5.6072
head 1.7974 -0.492286 2.86402
rclavicle -1.2424e-014 2.26615e-014
rhumerus 20.2041 -6.80448 -66.1325
rradius 88.6048
rwrist -3.62868
rhand -31.0268 -5.59638
rfingers 7.12502
rthumb -4.30898 -35.5325
lclavicle -1.2424e-014 2.26615e-014
lhumerus -22.3321 -12.2696 75.3552
lradius 46.8623
lwrist 20.0306
lhand -24.5504 27.8633
lfingers 7.12502
lthumb 1.94576 57.8341
rfemur -9.51408 10.2965 26.4513
rtibia 39.8491
rfoot -27.1312 -10.9211
rtoes 3.1777
lfemur -72.5997 2.13767 -20.5432
ltibia 91.1202
lfoot -15.0678 -4.30554
ltoes -6.08712
